<svg id="Layer_1" data-name="Layer 1" xmlns="http://www.w3.org/2000/svg" xmlns:xlink="http://www.w3.org/1999/xlink" viewBox="60 60 260 260">
    <defs>
        <style>
            .cls-1 {
                fill: url(#linear-gradient);
            }
            
            .cls-2 {
                fill: #fff;
            }
        </style>
        
        <linearGradient id="linear-gradient" x1="60" y1="60" x2="260" y2="260" gradientUnits="userSpaceOnUse">
            <stop offset="0" stop-color="#1369EC"/>
            <stop offset="1" stop-color="#13EC96"/>
        </linearGradient>
    </defs>
    
    <rect class="cls-1" x="60" y="60" width="260" height="260" rx="20"/>
    <g>
        <svg xmlns="http://www.w3.org/2000/svg" x="100" y="100" width="180" height="180" class="cls-2" viewBox="0 0 16 16">
            <path d="M8 1.783C7.015.936 5.587.81 4.287.94c-1.514.153-3.042.672-3.994 1.105A.5.5 0 0 0 0 2.5v11a.5.5 0 0 0 .707.455c.882-.4 2.303-.881 3.68-1.02 1.409-.142 2.59.087 3.223.877a.5.5 0 0 0 .78 0c.633-.79 1.814-1.019 3.222-.877 1.378.139 2.8.62 3.681 1.02A.5.5 0 0 0 16 13.5v-11a.5.5 0 0 0-.293-.455c-.952-.433-2.48-.952-3.994-1.105C10.413.809 8.985.936 8 1.783"/>
        </svg>
    </g>
</svg>
