<svg xmlns="http://www.w3.org/2000/svg" width="512" height="512" viewBox="60 60 260 260">
  <defs>
    <linearGradient id="icon_yf34crg1_grad" x1="60" y1="60" x2="320" y2="320" gradientUnits="userSpaceOnUse">
      <stop offset="0%" stop-color="#ff8c42" />
      <stop offset="100%" stop-color="#e21e6a" />
    </linearGradient>
  </defs>
  <rect x="60" y="60" width="260" height="260" rx="20" ry="20" fill="url(#icon_yf34crg1_grad)" />
  <g transform="translate(110.3125 105) scale(10.625)">
    <g color="#fff" fill="currentColor" stroke="none">
      <path fill-rule="evenodd" d="M8.646 5.646a.5.5 0 0 1 .708 0l2 2a.5.5 0 0 1 0 .708l-2 2a.5.5 0 0 1-.708-.708L10.293 8 8.646 6.354a.5.5 0 0 1 0-.708m-1.292 0a.5.5 0 0 0-.708 0l-2 2a.5.5 0 0 0 0 .708l2 2a.5.5 0 0 0 .708-.708L5.707 8l1.647-1.646a.5.5 0 0 0 0-.708"/>
        <path d="M3 0h10a2 2 0 0 1 2 2v12a2 2 0 0 1-2 2H3a2 2 0 0 1-2-2v-1h1v1a1 1 0 0 0 1 1h10a1 1 0 0 0 1-1V2a1 1 0 0 0-1-1H3a1 1 0 0 0-1 1v1H1V2a2 2 0 0 1 2-2"/>
        <path d="M1 5v-.5a.5.5 0 0 1 1 0V5h.5a.5.5 0 0 1 0 1h-2a.5.5 0 0 1 0-1zm0 3v-.5a.5.5 0 0 1 1 0V8h.5a.5.5 0 0 1 0 1h-2a.5.5 0 0 1 0-1zm0 3v-.5a.5.5 0 0 1 1 0v.5h.5a.5.5 0 0 1 0 1h-2a.5.5 0 0 1 0-1z"/>
    </g>
  </g>
</svg>
